<svg width="200" height="60" viewBox="0 0 200 60" fill="none" xmlns="http://www.w3.org/2000/svg">
<g clip-path="url(#clip0_156_985)">
<g clip-path="url(#clip1_156_985)">
<path d="M192.593 60H7.40751C3.33344 60 0.000106812 56.625 0.000106812 52.5V7.5C0.000106812 3.375 3.33344 -2.38419e-06 7.40751 -2.38419e-06H192.593C196.667 -2.38419e-06 200 3.375 200 7.5V52.5C200 56.625 196.667 60 192.593 60Z" fill="black"/>
<path d="M72.4535 39.7095H65.3534L63.6483 44.7441H60.641L67.3661 26.1171H70.4906L77.2157 44.7441H74.1571L72.4535 39.7095ZM66.0887 37.3862H71.7167L68.9423 29.2153H68.8647L66.0887 37.3862Z" fill="white"/>
<path d="M91.7397 37.9546C91.7397 42.1748 89.4809 44.8862 86.0722 44.8862C85.2087 44.9314 84.3499 44.7325 83.5943 44.3123C82.8386 43.8921 82.2165 43.2676 81.7992 42.5102H81.7347V49.2368H78.9471V31.1636H81.6454V33.4224H81.6967C82.1331 32.6687 82.7657 32.0474 83.5272 31.6246C84.2886 31.2018 85.1504 30.9934 86.0209 31.0215C89.4676 31.0215 91.7397 33.7461 91.7397 37.9546ZM88.8744 37.9546C88.8744 35.2051 87.4535 33.3975 85.2855 33.3975C83.1557 33.3975 81.723 35.2432 81.723 37.9546C81.723 40.6909 83.1557 42.5235 85.2855 42.5235C87.4535 42.5235 88.8744 40.729 88.8744 37.9546Z" fill="white"/>
<path d="M106.687 37.9546C106.687 42.1748 104.428 44.8862 101.019 44.8862C100.156 44.9314 99.2972 44.7325 98.5415 44.3123C97.7858 43.8921 97.1637 43.2676 96.7465 42.5102H96.682V49.2368H93.8944V31.1636H96.5926V33.4224H96.6439C97.0803 32.6687 97.7129 32.0474 98.4744 31.6246C99.2358 31.2018 100.098 30.9934 100.968 31.0215C104.415 31.0215 106.687 33.7461 106.687 37.9546ZM103.822 37.9546C103.822 35.2051 102.401 33.3975 100.233 33.3975C98.1029 33.3975 96.6703 35.2432 96.6703 37.9546C96.6703 40.6909 98.1029 42.5234 100.233 42.5234C102.401 42.5234 103.822 40.729 103.822 37.9546H103.822Z" fill="white"/>
<path d="M116.566 39.5542C116.772 41.4014 118.567 42.6142 121.019 42.6142C123.369 42.6142 125.059 41.4013 125.059 39.7358C125.059 38.29 124.039 37.4243 121.625 36.831L119.211 36.2494C115.791 35.4233 114.203 33.8236 114.203 31.2279C114.203 28.0141 117.004 25.8065 120.981 25.8065C124.917 25.8065 127.615 28.0141 127.706 31.2279H124.892C124.724 29.369 123.187 28.247 120.941 28.247C118.696 28.247 117.159 29.3822 117.159 31.0346C117.159 32.3515 118.141 33.1264 120.541 33.7196L122.594 34.2235C126.415 35.1273 128.003 36.6625 128.003 39.3871C128.003 42.8719 125.227 45.0545 120.812 45.0545C116.681 45.0545 113.892 42.9232 113.712 39.554L116.566 39.5542Z" fill="white"/>
<path d="M134.019 27.9497V31.1636H136.602V33.3711H134.019V40.8579C134.019 42.021 134.536 42.563 135.672 42.563C135.978 42.5576 136.284 42.5361 136.589 42.4985V44.6928C136.078 44.7882 135.56 44.8314 135.04 44.8217C132.291 44.8217 131.219 43.789 131.219 41.1552V33.3711H129.244V31.1636H131.219V27.9497H134.019Z" fill="white"/>
<path d="M138.098 37.9546C138.098 33.6816 140.614 30.9966 144.538 30.9966C148.476 30.9966 150.981 33.6816 150.981 37.9546C150.981 42.2393 148.489 44.9126 144.538 44.9126C140.589 44.9126 138.098 42.2392 138.098 37.9546ZM148.14 37.9546C148.14 35.0234 146.797 33.2935 144.538 33.2935C142.28 33.2935 140.938 35.0366 140.938 37.9546C140.938 40.8975 142.28 42.6143 144.538 42.6143C146.797 42.6143 148.14 40.8975 148.14 37.9546H148.14Z" fill="white"/>
<path d="M153.279 31.1636H155.938V33.4751H156.002C156.182 32.7531 156.605 32.1151 157.2 31.6683C157.795 31.2215 158.526 30.9931 159.269 31.0215C159.59 31.0203 159.911 31.0552 160.224 31.1255V33.7329C159.818 33.609 159.395 33.5521 158.972 33.5644C158.567 33.548 158.163 33.6194 157.788 33.7737C157.413 33.9281 157.076 34.1617 156.8 34.4585C156.524 34.7553 156.316 35.1084 156.189 35.4934C156.063 35.8784 156.021 36.2862 156.067 36.6889V44.7441H153.279L153.279 31.1636Z" fill="white"/>
<path d="M173.077 40.7554C172.702 43.2207 170.301 44.9126 167.229 44.9126C163.278 44.9126 160.826 42.2656 160.826 38.019C160.826 33.7593 163.291 30.9966 167.112 30.9966C170.869 30.9966 173.232 33.5776 173.232 37.6953V38.6504H163.64V38.8188C163.596 39.3186 163.658 39.8221 163.824 40.2959C163.989 40.7697 164.253 41.2028 164.599 41.5667C164.944 41.9305 165.363 42.2166 165.828 42.4061C166.292 42.5955 166.792 42.684 167.293 42.6655C167.952 42.7272 168.613 42.5747 169.178 42.2305C169.743 41.8864 170.182 41.369 170.43 40.7554L173.077 40.7554ZM163.653 36.7021H170.443C170.468 36.2528 170.4 35.803 170.243 35.3812C170.086 34.9594 169.843 34.5746 169.53 34.251C169.218 33.9273 168.841 33.6718 168.425 33.5005C168.009 33.3291 167.562 33.2457 167.112 33.2554C166.658 33.2527 166.208 33.3399 165.788 33.512C165.368 33.6841 164.986 33.9377 164.664 34.2582C164.343 34.5786 164.088 34.9596 163.914 35.379C163.741 35.7985 163.652 36.2482 163.653 36.7022V36.7021Z" fill="white"/>
<path d="M65.7394 12.0965C66.3238 12.0546 66.9102 12.1429 67.4564 12.355C68.0026 12.5672 68.4948 12.8979 68.8977 13.3233C69.3006 13.7488 69.604 14.2583 69.7861 14.8152C69.9682 15.3721 70.0245 15.9625 69.9508 16.5438C69.9508 19.4032 68.4054 21.0468 65.7394 21.0468H62.5065V12.0965H65.7394ZM63.8966 19.781H65.5841C66.0017 19.806 66.4196 19.7375 66.8074 19.5806C67.1952 19.4237 67.5432 19.1822 67.8259 18.8739C68.1086 18.5655 68.3191 18.198 68.4419 17.7981C68.5647 17.3982 68.5967 16.9759 68.5357 16.562C68.5923 16.1498 68.557 15.7301 68.4323 15.3331C68.3076 14.9361 68.0967 14.5716 67.8146 14.2657C67.5325 13.9598 67.1862 13.7201 66.8006 13.5638C66.415 13.4074 65.9996 13.3383 65.5841 13.3613H63.8966V19.781Z" fill="white"/>
<path d="M71.5212 17.6665C71.4787 17.2226 71.5295 16.7748 71.6702 16.3517C71.811 15.9286 72.0386 15.5396 72.3385 15.2096C72.6385 14.8796 73.004 14.616 73.4118 14.4356C73.8196 14.2552 74.2606 14.162 74.7065 14.162C75.1524 14.162 75.5933 14.2552 76.0011 14.4356C76.4089 14.616 76.7745 14.8796 77.0744 15.2096C77.3743 15.5396 77.6019 15.9286 77.7427 16.3517C77.8835 16.7748 77.9342 17.2226 77.8918 17.6665C77.935 18.1109 77.8849 18.5593 77.7445 18.9831C77.6041 19.4069 77.3766 19.7966 77.0766 20.1273C76.7766 20.4579 76.4108 20.7221 76.0026 20.9029C75.5944 21.0837 75.1529 21.1771 74.7065 21.1771C74.26 21.1771 73.8185 21.0837 73.4103 20.9029C73.0022 20.7221 72.6363 20.4579 72.3363 20.1273C72.0363 19.7966 71.8088 19.4069 71.6684 18.9831C71.5281 18.5593 71.4779 18.1109 71.5212 17.6665V17.6665ZM76.5207 17.6665C76.5207 16.2024 75.8629 15.3462 74.7087 15.3462C73.55 15.3462 72.8982 16.2024 72.8982 17.6665C72.8982 19.1424 73.55 19.992 74.7087 19.992C75.863 19.992 76.5207 19.1365 76.5207 17.6665H76.5207Z" fill="white"/>
<path d="M86.36 21.0466H84.9772L83.5812 16.072H83.4757L82.0856 21.0466H80.7159L78.8541 14.2922H80.2062L81.4161 19.4462H81.5157L82.9044 14.2922H84.1832L85.5719 19.4462H85.6774L86.8815 14.2922H88.2145L86.36 21.0466Z" fill="white"/>
<path d="M89.7804 14.2922H91.0636V15.3652H91.1632C91.3322 14.9799 91.6172 14.6568 91.9785 14.4411C92.3398 14.2254 92.7594 14.1278 93.1788 14.1619C93.5075 14.1372 93.8375 14.1867 94.1444 14.3068C94.4513 14.427 94.7272 14.6146 94.9517 14.8559C95.1762 15.0972 95.3436 15.3859 95.4414 15.7006C95.5392 16.0153 95.5649 16.348 95.5167 16.6741V21.0466H94.1837V17.0088C94.1837 15.9234 93.712 15.3836 92.7262 15.3836C92.5031 15.3732 92.2803 15.4111 92.0732 15.4949C91.8661 15.5786 91.6796 15.7062 91.5264 15.8687C91.3732 16.0313 91.257 16.2251 91.1857 16.4368C91.1144 16.6485 91.0897 16.8731 91.1134 17.0952V21.0466H89.7804L89.7804 14.2922Z" fill="white"/>
<path d="M97.6407 11.6555H98.9737V21.0466H97.6407V11.6555Z" fill="white"/>
<path d="M100.827 17.6665C100.784 17.2226 100.835 16.7747 100.976 16.3516C101.117 15.9285 101.344 15.5394 101.644 15.2095C101.944 14.8795 102.31 14.6158 102.718 14.4354C103.126 14.255 103.567 14.1618 104.012 14.1618C104.458 14.1618 104.899 14.255 105.307 14.4354C105.715 14.6158 106.081 14.8795 106.381 15.2095C106.68 15.5394 106.908 15.9285 107.049 16.3516C107.19 16.7747 107.241 17.2226 107.198 17.6665C107.241 18.1108 107.191 18.5593 107.051 18.9831C106.91 19.4069 106.683 19.7966 106.383 20.1272C106.083 20.4578 105.717 20.722 105.309 20.9028C104.9 21.0836 104.459 21.177 104.012 21.177C103.566 21.177 103.124 21.0836 102.716 20.9028C102.308 20.722 101.942 20.4578 101.642 20.1272C101.342 19.7966 101.115 19.4069 100.974 18.9831C100.834 18.5593 100.784 18.1108 100.827 17.6665V17.6665ZM105.826 17.6665C105.826 16.2024 105.169 15.3462 104.014 15.3462C102.856 15.3462 102.204 16.2024 102.204 17.6665C102.204 19.1423 102.856 19.9919 104.014 19.9919C105.169 19.9919 105.826 19.1365 105.826 17.6665H105.826Z" fill="white"/>
<path d="M108.601 19.1365C108.601 17.9207 109.507 17.2198 111.114 17.1202L112.943 17.0147V16.4317C112.943 15.7183 112.472 15.3155 111.56 15.3155C110.816 15.3155 110.301 15.5887 110.153 16.0662H108.862C108.998 14.9061 110.09 14.1619 111.622 14.1619C113.315 14.1619 114.27 15.0049 114.27 16.4317V21.0467H112.987V20.0975H112.882C112.668 20.438 112.367 20.7155 112.011 20.9018C111.654 21.0882 111.255 21.1765 110.853 21.158C110.569 21.1875 110.283 21.1572 110.012 21.0692C109.74 20.9811 109.491 20.8372 109.279 20.6468C109.067 20.4563 108.897 20.2235 108.78 19.9634C108.663 19.7033 108.603 19.4216 108.601 19.1365V19.1365ZM112.943 18.5594V17.9947L111.294 18.1001C110.364 18.1624 109.942 18.4788 109.942 19.0743C109.942 19.6822 110.469 20.0359 111.194 20.0359C111.407 20.0574 111.621 20.036 111.825 19.9728C112.029 19.9097 112.219 19.8062 112.382 19.6684C112.545 19.5307 112.679 19.3615 112.775 19.171C112.872 18.9804 112.929 18.7724 112.943 18.5594V18.5594Z" fill="white"/>
<path d="M116.022 17.6665C116.022 15.5323 117.119 14.1802 118.826 14.1802C119.248 14.1607 119.667 14.2619 120.034 14.4717C120.401 14.6815 120.7 14.9914 120.897 15.3652H120.997V11.6555H122.33V21.0466H121.053V19.9795H120.947C120.735 20.3507 120.425 20.6568 120.051 20.8645C119.677 21.0722 119.253 21.1737 118.826 21.1579C117.108 21.158 116.022 19.8059 116.022 17.6665ZM117.399 17.6665C117.399 19.0991 118.075 19.9612 119.204 19.9612C120.328 19.9612 121.022 19.0867 121.022 17.6724C121.022 16.2647 120.32 15.3777 119.204 15.3777C118.082 15.3777 117.399 16.2456 117.399 17.6665H117.399Z" fill="white"/>
<path d="M127.845 17.6665C127.803 17.2226 127.853 16.7748 127.994 16.3517C128.135 15.9286 128.363 15.5396 128.663 15.2096C128.962 14.8796 129.328 14.616 129.736 14.4356C130.144 14.2552 130.585 14.162 131.03 14.162C131.476 14.162 131.917 14.2552 132.325 14.4356C132.733 14.616 133.098 14.8796 133.398 15.2096C133.698 15.5396 133.926 15.9286 134.067 16.3517C134.207 16.7748 134.258 17.2226 134.216 17.6665C134.259 18.1109 134.209 18.5593 134.068 18.9831C133.928 19.4069 133.701 19.7966 133.401 20.1273C133.101 20.4579 132.735 20.7221 132.327 20.9029C131.918 21.0837 131.477 21.1771 131.03 21.1771C130.584 21.1771 130.142 21.0837 129.734 20.9029C129.326 20.7221 128.96 20.4579 128.66 20.1273C128.36 19.7966 128.133 19.4069 127.992 18.9831C127.852 18.5593 127.802 18.1109 127.845 17.6665V17.6665ZM132.845 17.6665C132.845 16.2024 132.187 15.3462 131.033 15.3462C129.874 15.3462 129.222 16.2024 129.222 17.6665C129.222 19.1424 129.874 19.992 131.033 19.992C132.187 19.992 132.845 19.1365 132.845 17.6665Z" fill="white"/>
<path d="M136.004 14.2922H137.287V15.3652H137.387C137.556 14.9799 137.841 14.6568 138.202 14.4411C138.564 14.2254 138.983 14.1278 139.403 14.1619C139.731 14.1372 140.061 14.1867 140.368 14.3068C140.675 14.427 140.951 14.6146 141.176 14.8559C141.4 15.0972 141.567 15.3859 141.665 15.7006C141.763 16.0153 141.789 16.348 141.741 16.6741V21.0466H140.408V17.0088C140.408 15.9234 139.936 15.3836 138.95 15.3836C138.727 15.3732 138.504 15.4111 138.297 15.4949C138.09 15.5786 137.903 15.7062 137.75 15.8687C137.597 16.0313 137.481 16.2251 137.41 16.4368C137.338 16.6485 137.314 16.8731 137.337 17.0952V21.0466H136.004V14.2922Z" fill="white"/>
<path d="M149.273 12.6106V14.323H150.736V15.4458H149.273V18.9189C149.273 19.6265 149.564 19.9363 150.228 19.9363C150.398 19.9357 150.567 19.9255 150.736 19.9055V21.0159C150.497 21.0587 150.254 21.0815 150.011 21.084C148.529 21.084 147.938 20.5625 147.938 19.2602V15.4457H146.866V14.3229H147.938V12.6106H149.273Z" fill="white"/>
<path d="M152.557 11.6555H153.878V15.3777H153.984C154.161 14.9887 154.454 14.6638 154.822 14.4473C155.191 14.2308 155.617 14.1332 156.043 14.1677C156.37 14.1499 156.697 14.2045 157 14.3276C157.304 14.4507 157.576 14.6392 157.799 14.8797C158.021 15.1202 158.187 15.4068 158.286 15.719C158.384 16.0312 158.413 16.3613 158.369 16.6858V21.0466H157.035V17.0146C157.035 15.9358 156.533 15.3894 155.591 15.3894C155.362 15.3706 155.131 15.4021 154.916 15.4817C154.7 15.5613 154.504 15.687 154.342 15.8501C154.18 16.0132 154.056 16.2097 153.978 16.426C153.9 16.6422 153.87 16.8728 153.89 17.1018V21.0466H152.557L152.557 11.6555Z" fill="white"/>
<path d="M166.142 19.2229C165.961 19.8402 165.568 20.3742 165.033 20.7314C164.498 21.0887 163.855 21.2464 163.215 21.177C162.77 21.1888 162.328 21.1035 161.919 20.9272C161.51 20.7509 161.145 20.4878 160.848 20.1561C160.551 19.8244 160.33 19.4321 160.2 19.0063C160.07 18.5806 160.034 18.1317 160.095 17.6907C160.036 17.2484 160.072 16.7985 160.202 16.3715C160.332 15.9445 160.552 15.5503 160.847 15.2157C161.142 14.8811 161.506 14.6138 161.913 14.432C162.321 14.2502 162.763 14.1581 163.209 14.1619C165.089 14.1619 166.222 15.4459 166.222 17.5669V18.032H161.453V18.1067C161.432 18.3546 161.463 18.6041 161.544 18.8392C161.626 19.0743 161.755 19.2899 161.924 19.4721C162.094 19.6543 162.299 19.799 162.528 19.8971C162.756 19.9952 163.003 20.0445 163.252 20.0417C163.571 20.08 163.894 20.0226 164.18 19.8768C164.466 19.731 164.702 19.5033 164.859 19.2229L166.142 19.2229ZM161.453 17.0462H164.864C164.881 16.8195 164.85 16.5918 164.774 16.3777C164.698 16.1636 164.577 15.9679 164.421 15.8031C164.264 15.6383 164.075 15.5081 163.865 15.4209C163.655 15.3336 163.429 15.2912 163.202 15.2964C162.971 15.2935 162.742 15.3368 162.529 15.4237C162.315 15.5106 162.121 15.6394 161.958 15.8025C161.795 15.9656 161.667 16.1596 161.58 16.3732C161.493 16.5868 161.45 16.8156 161.453 17.0462H161.453Z" fill="white"/>
<path d="M46.1536 29.451C46.1697 28.199 46.5023 26.9714 47.1203 25.8825C47.7384 24.7935 48.6218 23.8786 49.6884 23.2229C49.0108 22.2551 48.1169 21.4587 47.0777 20.8969C46.0384 20.3351 44.8825 20.0233 43.7017 19.9863C41.1828 19.722 38.7409 21.4936 37.4573 21.4936C36.1489 21.4936 34.1727 20.0126 32.0446 20.0564C30.6681 20.1008 29.3266 20.5011 28.1507 21.2182C26.9749 21.9353 26.0049 22.9447 25.3352 24.1482C22.4342 29.1708 24.5981 36.5524 27.377 40.6123C28.7674 42.6003 30.3923 44.821 32.5185 44.7423C34.5991 44.656 35.3761 43.4155 37.8876 43.4155C40.3757 43.4155 41.1047 44.7423 43.2741 44.6922C45.5066 44.6559 46.9133 42.6953 48.2548 40.6885C49.2538 39.2719 50.0225 37.7063 50.5325 36.0497C49.2354 35.5011 48.1285 34.5828 47.3498 33.4094C46.5711 32.236 46.1551 30.8593 46.1536 29.451V29.451Z" fill="white"/>
<path d="M42.0562 17.3163C43.2734 15.8549 43.8732 13.9767 43.7279 12.0803C41.8682 12.2757 40.1503 13.1645 38.9166 14.5697C38.3133 15.2562 37.8514 16.0549 37.557 16.92C37.2626 17.7852 37.1417 18.6999 37.201 19.6118C38.1312 19.6214 39.0515 19.4198 39.8925 19.0221C40.7335 18.6245 41.4733 18.0412 42.0562 17.3163Z" fill="white"/>
<path d="M192.593 -2.38419e-06H7.40751C3.33344 -2.38419e-06 0.000106812 3.375 0.000106812 7.5V52.5C0.000106812 56.625 3.33344 60 7.40751 60H192.593C196.667 60 200 56.625 200 52.5V7.5C200 3.375 196.667 -2.38419e-06 192.593 -2.38419e-06ZM192.593 1.2C196.024 1.2 198.815 4.0266 198.815 7.5V52.5C198.815 55.974 196.024 58.8006 192.593 58.8006H7.40751C3.977 58.8006 1.18529 55.974 1.18529 52.5V7.5C1.18529 4.0266 3.977 1.2 7.40751 1.2H192.593Z" fill="#A6A6A6"/>
</g>
</g>
<defs>
<clipPath id="clip0_156_985">
<rect width="200" height="60" fill="white"/>
</clipPath>
<clipPath id="clip1_156_985">
<rect width="200" height="60" fill="white"/>
</clipPath>
</defs>
</svg>
