<svg width="200" height="60" viewBox="0 0 200 60" fill="none" xmlns="http://www.w3.org/2000/svg">
<g clip-path="url(#clip0_156_921)">
<g clip-path="url(#clip1_156_921)">
<path d="M192.593 60H7.40753C3.33346 60 0.00012207 56.625 0.00012207 52.5V7.5C0.00012207 3.375 3.33346 -2.38419e-06 7.40753 -2.38419e-06H192.593C196.667 -2.38419e-06 200 3.375 200 7.5V52.5C200 56.625 196.667 60 192.593 60Z" fill="black"/>
<path d="M192.593 -2.38419e-06H7.40753C3.33346 -2.38419e-06 0.00012207 3.375 0.00012207 7.5V52.5C0.00012207 56.625 3.33346 60 7.40753 60H192.593C196.667 60 200 56.625 200 52.5V7.5C200 3.375 196.667 -2.38419e-06 192.593 -2.38419e-06ZM192.593 1.2C196.024 1.2 198.815 4.0266 198.815 7.5V52.5C198.815 55.974 196.024 58.8006 192.593 58.8006H7.40753C3.97701 58.8006 1.18531 55.974 1.18531 52.5V7.5C1.18531 4.0266 3.97701 1.2 7.40753 1.2H192.593Z" fill="#A6A6A6"/>
<path d="M70.2416 15.4378C70.2416 16.6882 69.8748 17.684 69.1403 18.4269C68.306 19.3102 67.2187 19.7521 65.8819 19.7521C64.6018 19.7521 63.5134 19.3043 62.6184 18.4076C61.7217 17.5115 61.2742 16.4003 61.2742 15.0745C61.2742 13.7481 61.7217 12.6375 62.6184 11.7408C63.5134 10.8446 64.6018 10.3963 65.8819 10.3963C66.5171 10.3963 67.1252 10.5217 67.7026 10.7718C68.28 11.0225 68.7431 11.3554 69.0896 11.7723L68.31 12.5599C67.7229 11.8515 66.9144 11.4976 65.8819 11.4976C64.9483 11.4976 64.141 11.8288 63.4597 12.4917C62.7783 13.1552 62.4377 14.0157 62.4377 15.0745C62.4377 16.1333 62.7783 16.9937 63.4597 17.6573C64.141 18.3202 64.9483 18.6514 65.8819 18.6514C66.8723 18.6514 67.698 18.3184 68.3591 17.6515C68.7882 17.217 69.0364 16.6131 69.1028 15.8376H65.8819V14.762H70.1798C70.2213 14.9958 70.2416 15.2203 70.2416 15.4378" fill="white"/>
<path d="M70.2416 15.4378H70.0937C70.0926 16.6598 69.7391 17.6089 69.0358 18.3214L69.0342 18.3226L69.0336 18.3238C68.2257 19.1766 67.1874 19.6011 65.8819 19.6029C64.6359 19.6011 63.5931 19.172 62.7223 18.3021C61.8534 17.4305 61.4237 16.3665 61.422 15.0745C61.4237 13.782 61.8534 12.7186 62.7223 11.8475C63.5931 10.9771 64.6359 10.5474 65.8819 10.5456C66.498 10.5456 67.0847 10.6669 67.6442 10.9089C68.2043 11.1526 68.6467 11.472 68.9764 11.8686L69.0896 11.7723L68.9851 11.6668L68.2055 12.455L68.31 12.5599L68.4238 12.4644C67.8093 11.7209 66.9468 11.3462 65.8819 11.3484C64.9137 11.3472 64.062 11.6965 63.3574 12.3845C62.6461 13.0748 62.2887 13.9836 62.2899 15.0745C62.2887 16.1654 62.6461 17.0742 63.3574 17.7645C64.062 18.4526 64.9137 18.8018 65.8819 18.8006C66.9051 18.8024 67.7771 18.452 68.4636 17.7571C68.9221 17.2929 69.182 16.6499 69.2501 15.8505L69.2639 15.6884H66.0297V14.9112H70.1798V14.762L70.0342 14.7883C70.0747 15.0145 70.0937 15.2296 70.0937 15.4378H70.2416H70.3894C70.3894 15.2109 70.3685 14.9778 70.3252 14.7353L70.3033 14.6127H65.7341V15.8377V15.9869H69.1027V15.8377L68.9555 15.8248C68.8903 16.5759 68.6535 17.1414 68.2546 17.546C67.6194 18.185 66.8399 18.5004 65.8819 18.5021C64.9829 18.5009 64.2201 18.1884 63.5625 17.5501C62.9112 16.9139 62.5872 16.1018 62.5855 15.0745C62.5872 14.0472 62.9112 13.2351 63.5625 12.599C64.2201 11.9607 64.9829 11.6481 65.8819 11.6469C66.8815 11.6493 67.6362 11.9827 68.1969 12.6562L68.3008 12.7809L69.1941 11.8778L69.2899 11.7811L69.2027 11.6766C68.8395 11.2395 68.3557 10.8924 67.7608 10.6348C67.165 10.3765 66.5362 10.2471 65.8819 10.2471C64.5678 10.2459 63.4337 10.7123 62.5138 11.6353C61.5906 12.5565 61.1252 13.7144 61.1264 15.0745C61.1252 16.4341 61.5906 17.5926 62.5144 18.5144C63.4337 19.4368 64.5678 19.9026 65.8819 19.9014C67.2504 19.9026 68.3857 19.4436 69.2472 18.5301L69.1403 18.4269L69.2448 18.5324C70.0105 17.7599 70.3904 16.7163 70.3894 15.4378H70.2416Z" fill="white"/>
<path d="M77.055 11.697H73.016V14.5364H76.6584V15.6126H73.016V18.452H77.055V19.5521H71.8773V10.5969H77.055V11.697Z" fill="white"/>
<path d="M77.055 11.6971V11.5479H72.8681V14.6858H76.5106V15.463L72.8681 15.4634V18.6013H76.9071V19.403H72.0251V10.7463H76.9071V11.6971H77.055V11.5479V11.6971H77.2028V10.597V10.4477H71.7295V19.7015H77.2028V18.4521V18.3028H73.1638V15.7619H76.8062V14.5366V14.3873H73.1638V11.8464H77.2028V11.6971H77.055" fill="white"/>
<path d="M81.861 19.5521H80.7205V11.697H78.2434V10.5969H84.3381V11.697H81.861V19.5521Z" fill="white"/>
<path d="M81.861 19.5522V19.403H80.8683V11.5479H78.3912V10.7463H84.1903V11.5479H81.7131V19.5522H81.861V19.403V19.5522H82.0088V11.8464H84.4859V10.597V10.4477H78.0956V11.6971V11.8464H80.5727V19.7015H81.861H82.0088V19.5522H81.861" fill="white"/>
<path d="M88.7482 19.5524V10.5971H89.8874V19.5524H88.7482Z" fill="white"/>
<path d="M88.7479 19.5522H88.8957V10.7463H89.7393V19.403H88.7479V19.5522H88.8957H88.7479V19.7015H89.8871H90.035V10.4477H88.7479H88.6001V19.7015H88.7479V19.5522Z" fill="white"/>
<path d="M94.9423 19.5521H93.8019V11.697H91.3249V10.5969H97.4195V11.697H94.9423V19.5521Z" fill="white"/>
<path d="M94.9421 19.552V19.4028H93.9495V11.5477H91.4725V10.7461H97.2715V11.5477H94.7943V19.552H94.9421V19.4028V19.552H95.09V11.8462H97.5671V10.5968V10.4476H91.1769V11.697V11.8462H93.6539V19.7013H94.9421H95.09V19.552H94.9421" fill="white"/>
<path d="M103.295 17.6451C103.952 18.3161 104.755 18.6514 105.705 18.6514C106.655 18.6514 107.459 18.3161 108.114 17.6451C108.771 16.974 109.1 16.1163 109.1 15.0745C109.1 14.0327 108.771 13.1749 108.114 12.5039C107.459 11.8328 106.655 11.4976 105.705 11.4976C104.755 11.4976 103.952 11.8328 103.295 12.5039C102.64 13.1749 102.311 14.0327 102.311 15.0745C102.311 16.1163 102.64 16.974 103.295 17.6451ZM108.957 18.3948C108.085 19.3002 107.001 19.7521 105.705 19.7521C104.408 19.7521 103.324 19.3002 102.454 18.3948C101.582 17.4905 101.147 16.3834 101.147 15.0745C101.147 13.7655 101.582 12.6584 102.454 11.7542C103.324 10.8487 104.408 10.3963 105.705 10.3963C106.994 10.3963 108.075 10.8511 108.951 11.76C109.826 12.669 110.264 13.7737 110.264 15.0745C110.264 16.3834 109.827 17.4905 108.957 18.3948Z" fill="white"/>
<path d="M103.295 17.6451L103.19 17.7501C103.871 18.448 104.72 18.8024 105.705 18.8006C106.689 18.8024 107.539 18.448 108.219 17.7501C108.904 17.0515 109.249 16.1478 109.248 15.0745C109.249 14.0012 108.904 13.0975 108.219 12.399C107.539 11.7011 106.689 11.3466 105.705 11.3484C104.72 11.3466 103.871 11.7011 103.19 12.399C102.507 13.0975 102.161 14.0012 102.163 15.0745C102.161 16.1478 102.507 17.0515 103.19 17.7501L103.295 17.6451L103.4 17.5402C102.773 16.8959 102.46 16.0854 102.459 15.0745C102.46 14.0636 102.773 13.2532 103.4 12.6089C104.033 11.9647 104.789 11.6487 105.705 11.6469C106.62 11.6487 107.378 11.9647 108.009 12.6089C108.637 13.2532 108.951 14.0636 108.952 15.0745C108.951 16.0854 108.637 16.8959 108.009 17.5402C107.378 18.1844 106.62 18.5004 105.705 18.5021C104.789 18.5004 104.033 18.1844 103.4 17.5402L103.295 17.6451ZM108.957 18.3948L108.851 18.2911C108.004 19.168 106.967 19.6011 105.705 19.6029C104.442 19.6011 103.406 19.168 102.56 18.2911L102.556 18.2865L102.56 18.2911C101.714 17.4112 101.296 16.3502 101.295 15.0745C101.296 13.7989 101.714 12.7378 102.56 11.858C103.406 10.9811 104.442 10.5474 105.705 10.5456C106.959 10.5474 107.993 10.9829 108.846 11.8644C109.694 12.7483 110.114 13.8077 110.116 15.0745C110.114 16.3502 109.695 17.4112 108.851 18.2911L108.957 18.3948L109.063 18.4986C109.959 17.5693 110.413 16.4166 110.412 15.0745C110.413 13.7401 109.958 12.5898 109.057 11.6563C108.157 10.7193 107.028 10.2454 105.705 10.2471C104.375 10.2454 103.243 10.7171 102.348 11.6505V11.6499C101.45 12.5798 100.998 13.7324 101 15.0745C100.998 16.4166 101.45 17.5693 102.348 18.4992L102.352 18.5033L102.348 18.4986C103.243 19.432 104.375 19.9026 105.705 19.9014C107.035 19.9026 108.166 19.432 109.063 18.4986L108.957 18.3948" fill="white"/>
<path d="M111.863 19.5521V10.5969H113.25L117.561 17.5635H117.61L117.561 15.8376V10.5969H118.701V19.5521H117.511L113.002 12.2479H112.953L113.002 13.9744V19.5521H111.863Z" fill="white"/>
<path d="M111.863 19.5522H112.011V10.7463H113.168L117.479 17.7128H117.61H117.761L117.708 15.8355V10.7463H118.553V19.403H117.594L113.084 12.0988H112.953H112.801L112.854 13.9768V19.403H111.863V19.5522H112.011H111.863V19.7015H113.002H113.15V13.9721L113.101 12.244L112.953 12.248V12.3973H113.002V12.248L112.876 12.3274L117.429 19.7015H118.701H118.849V10.4477H117.561H117.413V15.8395L117.462 17.5676L117.61 17.5636V17.4143H117.561V17.5636L117.686 17.4843L113.332 10.4477H111.863H111.715V19.7015H111.863V19.5522Z" fill="white"/>
<path d="M158.22 44.9253H160.979V26.2668H158.22V44.9253ZM183.064 32.988L179.903 41.0774H179.808L176.526 32.988H173.555L178.476 44.2944L175.67 50.5835H178.548L186.132 32.988H183.064ZM167.422 42.806C166.517 42.806 165.258 42.3501 165.258 41.2214C165.258 39.7813 166.828 39.2292 168.182 39.2292C169.395 39.2292 169.965 39.4932 170.702 39.8537C170.488 41.5817 169.014 42.806 167.422 42.806V42.806ZM167.755 32.5798C165.758 32.5798 163.69 33.4683 162.834 35.4366L165.282 36.4686C165.805 35.4366 166.779 35.1002 167.802 35.1002C169.228 35.1002 170.679 35.9649 170.702 37.5011V37.6929C170.203 37.4049 169.134 36.9729 167.826 36.9729C165.187 36.9729 162.5 38.4368 162.5 41.1735C162.5 43.6701 164.664 45.2786 167.088 45.2786C168.943 45.2786 169.965 44.4384 170.608 43.4544H170.702V44.8944H173.364V37.7407C173.364 34.4286 170.917 32.5798 167.755 32.5798V32.5798ZM150.708 35.2593H146.785V28.8637H150.708C152.77 28.8637 153.941 30.5875 153.941 32.0614C153.941 33.5074 152.77 35.2593 150.708 35.2593ZM150.637 26.2668H144.028V44.9253H146.785V37.8562H150.637C153.694 37.8562 156.699 35.6214 156.699 32.0614C156.699 28.5016 153.694 26.2668 150.637 26.2668ZM114.597 42.8095C112.692 42.8095 111.096 41.1986 111.096 38.986C111.096 36.7502 112.692 35.1149 114.597 35.1149C116.479 35.1149 117.955 36.7502 117.955 38.986C117.955 41.1986 116.479 42.8095 114.597 42.8095V42.8095ZM117.764 34.0328H117.669C117.05 33.2875 115.859 32.6143 114.359 32.6143C111.215 32.6143 108.334 35.4034 108.334 38.986C108.334 42.5449 111.215 45.3101 114.359 45.3101C115.859 45.3101 117.05 44.6366 117.669 43.8677H117.764V44.7813C117.764 47.2102 116.479 48.5086 114.407 48.5086C112.716 48.5086 111.668 47.2819 111.239 46.2481L108.834 47.258C109.525 48.9411 111.359 51.0092 114.407 51.0092C117.645 51.0092 120.384 49.0852 120.384 44.3965V32.999H117.764V34.0328ZM122.289 44.9253H125.051V26.2662H122.289V44.9253ZM129.124 38.7698C129.052 36.3169 131.005 35.0669 132.41 35.0669C133.506 35.0669 134.435 35.6196 134.744 36.4138L129.124 38.7698ZM137.697 36.654C137.174 35.2349 135.577 32.6143 132.315 32.6143C129.076 32.6143 126.385 35.1871 126.385 38.9622C126.385 42.521 129.052 45.3101 132.624 45.3101C135.506 45.3101 137.174 43.5307 137.864 42.4969L135.721 41.054C135.007 42.1122 134.03 42.8095 132.624 42.8095C131.219 42.8095 130.219 42.1601 129.576 40.886L137.982 37.3752L137.697 36.654ZM70.7226 34.562V37.255H77.1047C76.9142 38.7698 76.4141 39.8758 75.6519 40.6453C74.7235 41.5834 73.2707 42.6171 70.7226 42.6171C66.7931 42.6171 63.7212 39.4192 63.7212 35.4517C63.7212 31.4843 66.7931 28.2859 70.7226 28.2859C72.8422 28.2859 74.3897 29.1277 75.5329 30.2098L77.4142 28.3104C75.8188 26.7711 73.6991 25.5929 70.7226 25.5929C65.3403 25.5929 60.8157 30.0174 60.8157 35.4517C60.8157 40.8861 65.3403 45.3101 70.7226 45.3101C73.6281 45.3101 75.8188 44.3487 77.5332 42.5449C79.2955 40.7655 79.8435 38.2649 79.8435 36.2453C79.8435 35.6196 79.796 35.0431 79.7003 34.562H70.7226ZM87.0994 42.8095C85.1938 42.8095 83.5505 41.2225 83.5505 38.9622C83.5505 36.6778 85.1938 35.1149 87.0994 35.1149C89.0042 35.1149 90.6475 36.6778 90.6475 38.9622C90.6475 41.2225 89.0042 42.8095 87.0994 42.8095V42.8095ZM87.0994 32.6143C83.6221 32.6143 80.7881 35.2832 80.7881 38.9622C80.7881 42.6171 83.6221 45.3101 87.0994 45.3101C90.5759 45.3101 93.4099 42.6171 93.4099 38.9622C93.4099 35.2832 90.5759 32.6143 87.0994 32.6143ZM100.866 42.8095C98.9613 42.8095 97.3179 41.2225 97.3179 38.9622C97.3179 36.6778 98.9613 35.1149 100.866 35.1149C102.771 35.1149 104.414 36.6778 104.414 38.9622C104.414 41.2225 102.771 42.8095 100.866 42.8095ZM100.866 32.6143C97.389 32.6143 94.5556 35.2832 94.5556 38.9622C94.5556 42.6171 97.389 45.3101 100.866 45.3101C104.343 45.3101 107.177 42.6171 107.177 38.9622C107.177 35.2832 104.343 32.6143 100.866 32.6143Z" fill="white"/>
<path d="M15.6834 48.4916L15.5736 48.3855C15.1434 47.9259 14.8895 47.2123 14.8895 46.2883V46.5058V13.4968C14.8895 13.4938 14.8895 13.4916 14.8895 13.4892C14.8895 13.492 14.8895 13.4944 14.8895 13.4974V13.7155C14.8895 12.7149 15.1856 11.9611 15.6817 11.5092L33.9962 30.001L15.6834 48.4916ZM14.8895 13.4874C14.8895 13.4052 14.8917 13.3253 14.8959 13.2467C14.8917 13.3247 14.8895 13.4052 14.8895 13.4874ZM14.8959 13.2431C14.8959 13.242 14.8959 13.2408 14.8963 13.2396C14.8959 13.2408 14.8959 13.242 14.8959 13.2431ZM14.8963 13.2326C14.8963 13.232 14.8963 13.2314 14.8963 13.2308C14.8963 13.2314 14.8963 13.232 14.8963 13.2326Z" fill="url(#paint0_linear_156_921)"/>
<path d="M40.1001 36.3857L40.2394 36.3058L47.4721 32.1564C48.1616 31.7606 48.6212 31.2808 48.8505 30.773C48.6218 31.2808 48.1621 31.7612 47.4721 32.157L40.2394 36.3064L40.1001 36.3857V36.3857ZM40.1019 36.167L33.9962 30.0011L40.1013 23.8361L47.4721 28.0642C48.408 28.6012 48.9335 29.2933 49.0214 30.0005C49.0214 30.0011 49.0214 30.0022 49.0214 30.0033C48.9335 30.7088 48.408 31.4015 47.4721 31.9384L40.1019 36.167" fill="url(#paint1_linear_156_921)"/>
<path d="M16.989 49.1958C16.4774 49.1958 16.031 49.0279 15.6828 48.7107L15.6834 48.7101C16.0315 49.0273 16.4786 49.1958 16.9902 49.1958C17.0345 49.1958 17.0796 49.1946 17.1253 49.1923C17.079 49.1946 17.0333 49.1958 16.989 49.1958V49.1958ZM16.9896 48.9771C16.478 48.9777 16.0315 48.8092 15.6834 48.492V48.4916L33.9962 30.001L40.1019 36.167L18.6456 48.4764C18.0519 48.8162 17.4895 48.9771 16.9896 48.9771V48.9771ZM15.6783 48.7067C15.6459 48.677 15.6141 48.6455 15.5829 48.6128L15.6783 48.7067Z" fill="url(#paint2_linear_156_921)"/>
<path d="M33.9962 30.0011L15.6816 11.5093C16.0297 11.1927 16.4755 11.0248 16.9866 11.0248C17.4878 11.0248 18.0507 11.1863 18.6455 11.5267L40.1013 23.8361L33.9962 30.0011V30.0011ZM40.2393 23.6969L18.6455 11.3088C18.0507 10.9682 17.4878 10.8067 16.9866 10.8067C16.9842 10.8067 16.9826 10.8067 16.9802 10.8067C16.9832 10.8067 16.9854 10.8067 16.9889 10.8067C17.489 10.8067 18.0513 10.9676 18.6455 11.3082L40.2393 23.6969V23.6969Z" fill="url(#paint3_linear_156_921)"/>
<path d="M17.1252 49.1923C17.59 49.1654 18.1045 49.0039 18.6456 48.6944L40.1001 36.3856L18.6456 48.6944C18.105 49.0045 17.59 49.1654 17.1252 49.1923V49.1923ZM15.6828 48.7107L15.6782 48.7066C15.6799 48.7078 15.6816 48.7095 15.6828 48.7107ZM15.5829 48.6127L15.5736 48.6035V48.6029C15.5771 48.6063 15.5799 48.6098 15.5829 48.6127Z" fill="black"/>
<path d="M40.1001 36.3857L40.2405 36.306L40.1001 36.3857Z" fill="url(#paint4_linear_156_921)"/>
<path d="M16.9901 49.1958C16.4785 49.1958 16.0315 49.0273 15.6834 48.7101L15.6828 48.7107C15.6816 48.7095 15.6799 48.7079 15.6782 48.7067L15.5829 48.6128C15.5799 48.6098 15.5771 48.6064 15.5736 48.6029L15.6834 48.492C16.0315 48.8092 16.4779 48.9777 16.9895 48.9771C17.4895 48.9771 18.0519 48.8162 18.6456 48.4764L40.1019 36.167L40.2394 36.3058L40.1001 36.3856L18.6456 48.6944C18.1045 49.004 17.59 49.1655 17.1252 49.1923C17.0796 49.1946 17.0345 49.1958 16.9901 49.1958" fill="url(#paint5_linear_156_921)"/>
<path d="M15.5736 48.6037C15.1434 48.1442 14.8895 47.4306 14.8895 46.5066V46.506C14.8895 47.4306 15.1434 48.1436 15.5736 48.6031V48.6037" fill="black"/>
<path d="M15.5736 48.6031C15.1435 48.1436 14.8895 47.4306 14.8895 46.506V46.2885C14.8895 47.2126 15.1435 47.9261 15.5736 48.3857L15.6834 48.4918L15.5736 48.6031" fill="url(#paint6_linear_156_921)"/>
<path d="M15.5736 48.6031L15.6843 48.492V48.4924L15.5736 48.6031" fill="url(#paint7_linear_156_921)"/>
<path d="M48.8504 30.7731C48.9643 30.5212 49.0216 30.2624 49.0216 30.0034C49.0216 30.003 49.0216 30.0024 49.0216 30.0024C49.0216 30.2618 48.9643 30.5206 48.8504 30.7731Z" fill="black"/>
<path d="M40.2394 36.3057L40.1019 36.1669L47.4721 31.9383C48.4081 31.4014 48.9336 30.7087 49.0214 30.0032C49.0214 30.2621 48.9642 30.5209 48.8505 30.7729C48.6212 31.2806 48.1617 31.7605 47.4721 32.1563L40.2394 36.3057Z" fill="url(#paint8_linear_156_921)"/>
<path d="M49.0213 30.0011V30.0005C49.0207 29.2197 48.5039 28.4391 47.472 27.8467L40.2393 23.6973H40.2387L40.2393 23.6969L47.472 27.8461C48.5051 28.4385 49.0224 29.2203 49.0213 30.0011Z" fill="#404040"/>
<path d="M49.0213 30.0005C48.9335 29.2934 48.408 28.6013 47.472 28.0643L40.1013 23.8362L40.2388 23.6974H40.2394L47.472 27.8468C48.504 28.4392 49.0208 29.2198 49.0213 30.0005Z" fill="url(#paint9_linear_156_921)"/>
<path d="M14.8895 13.4893C14.8895 13.4887 14.8895 13.4881 14.8895 13.4875C14.8895 13.4881 14.8895 13.4887 14.8895 13.4893ZM14.8959 13.2468C14.8959 13.2456 14.8959 13.2444 14.8959 13.2432C14.8959 13.2444 14.8959 13.2456 14.8959 13.2468ZM14.8963 13.2398C14.8963 13.2374 14.8963 13.2351 14.8963 13.2328C14.8963 13.2351 14.8963 13.2374 14.8963 13.2398ZM14.8963 13.231C14.9819 11.6977 15.8076 10.812 16.9757 10.8068C16.4692 10.8098 16.0281 10.9777 15.6828 11.2919V11.2913L15.6787 11.2954C15.6423 11.3286 15.6078 11.3636 15.5736 11.3998C15.1856 11.8142 14.9408 12.4351 14.8963 13.231Z" fill="#404040"/>
<path d="M14.8895 13.7157V13.4976C14.8895 13.4946 14.8895 13.4922 14.8895 13.4894C14.8895 13.4888 14.8895 13.4882 14.8895 13.4876C14.8895 13.4054 14.8917 13.3249 14.8959 13.2469C14.8959 13.2457 14.8959 13.2445 14.8959 13.2433C14.8959 13.2422 14.8959 13.241 14.8963 13.2398C14.8963 13.2375 14.8963 13.2352 14.8963 13.2328C14.8963 13.2322 14.8963 13.2316 14.8963 13.231C14.9408 12.4352 15.1856 11.8143 15.5736 11.3998L15.6817 11.5094C15.1856 11.9613 14.8895 12.7151 14.8895 13.7157V13.7157ZM15.6787 11.2955L15.6828 11.2913C15.6817 11.2931 15.6799 11.2943 15.6787 11.2955Z" fill="url(#paint10_linear_156_921)"/>
<path d="M40.1013 23.8362L18.6456 11.5267C18.0507 11.1863 17.4878 11.0248 16.9866 11.0248C16.4756 11.0248 16.0297 11.1927 15.6816 11.5093L15.5736 11.3997C15.6077 11.3636 15.6423 11.3285 15.6787 11.2954C15.6799 11.2942 15.6816 11.293 15.6828 11.2918C16.0281 10.9776 16.4692 10.8097 16.9756 10.8067C16.9768 10.8067 16.9785 10.8067 16.9802 10.8067C16.9826 10.8067 16.9842 10.8067 16.9866 10.8067C17.4878 10.8067 18.0507 10.9682 18.6456 11.3088L40.2394 23.6969L40.2388 23.6973L40.1013 23.8362Z" fill="url(#paint11_linear_156_921)"/>
</g>
</g>
<defs>
<linearGradient id="paint0_linear_156_921" x1="32.3723" y1="13.1486" x2="7.32494" y2="37.9553" gradientUnits="userSpaceOnUse">
<stop stop-color="#00A0FF"/>
<stop offset="0.00657445" stop-color="#00A1FF"/>
<stop offset="0.2601" stop-color="#00BEFF"/>
<stop offset="0.5122" stop-color="#00D2FF"/>
<stop offset="0.7604" stop-color="#00DFFF"/>
<stop offset="1" stop-color="#00E3FF"/>
</linearGradient>
<linearGradient id="paint1_linear_156_921" x1="50.1618" y1="30.0019" x2="14.3938" y2="30.0019" gradientUnits="userSpaceOnUse">
<stop stop-color="#FFE000"/>
<stop offset="0.4087" stop-color="#FFBD00"/>
<stop offset="0.7754" stop-color="#FFA500"/>
<stop offset="1" stop-color="#FF9C00"/>
</linearGradient>
<linearGradient id="paint2_linear_156_921" x1="36.8471" y1="33.4268" x2="2.88104" y2="67.0665" gradientUnits="userSpaceOnUse">
<stop stop-color="#FF3A44"/>
<stop offset="1" stop-color="#C31162"/>
</linearGradient>
<linearGradient id="paint3_linear_156_921" x1="10.9347" y1="0.412117" x2="26.1019" y2="15.4336" gradientUnits="userSpaceOnUse">
<stop stop-color="#32A071"/>
<stop offset="0.0685" stop-color="#2DA771"/>
<stop offset="0.4762" stop-color="#15CF74"/>
<stop offset="0.8009" stop-color="#06E775"/>
<stop offset="1" stop-color="#00F076"/>
</linearGradient>
<linearGradient id="paint4_linear_156_921" x1="50.2417" y1="30.0133" x2="14.1895" y2="30.0133" gradientUnits="userSpaceOnUse">
<stop stop-color="#CCB300"/>
<stop offset="0.4087" stop-color="#CC9700"/>
<stop offset="0.7754" stop-color="#CC8400"/>
<stop offset="1" stop-color="#CC7D00"/>
</linearGradient>
<linearGradient id="paint5_linear_156_921" x1="36.847" y1="33.4268" x2="2.88102" y2="67.0665" gradientUnits="userSpaceOnUse">
<stop stop-color="#CC2E36"/>
<stop offset="1" stop-color="#9C0E4E"/>
</linearGradient>
<linearGradient id="paint6_linear_156_921" x1="32.3724" y1="13.1489" x2="7.32507" y2="37.9557" gradientUnits="userSpaceOnUse">
<stop stop-color="#008DE0"/>
<stop offset="0.00657445" stop-color="#008DE0"/>
<stop offset="0.2601" stop-color="#00A7E0"/>
<stop offset="0.5122" stop-color="#00B8E0"/>
<stop offset="0.7604" stop-color="#00C4E0"/>
<stop offset="1" stop-color="#00C7E0"/>
</linearGradient>
<linearGradient id="paint7_linear_156_921" x1="37.0163" y1="33.4536" x2="3.10822" y2="67.3625" gradientUnits="userSpaceOnUse">
<stop stop-color="#E0333C"/>
<stop offset="1" stop-color="#AB0F56"/>
</linearGradient>
<linearGradient id="paint8_linear_156_921" x1="50.1618" y1="30.0018" x2="14.3939" y2="30.0018" gradientUnits="userSpaceOnUse">
<stop stop-color="#E0C500"/>
<stop offset="0.4087" stop-color="#E0A600"/>
<stop offset="0.7754" stop-color="#E09100"/>
<stop offset="1" stop-color="#E08900"/>
</linearGradient>
<linearGradient id="paint9_linear_156_921" x1="50.1618" y1="30.002" x2="14.3939" y2="30.002" gradientUnits="userSpaceOnUse">
<stop stop-color="#FFE840"/>
<stop offset="0.4087" stop-color="#FFCE40"/>
<stop offset="0.7754" stop-color="#FFBC40"/>
<stop offset="1" stop-color="#FFB540"/>
</linearGradient>
<linearGradient id="paint10_linear_156_921" x1="32.3723" y1="13.1488" x2="7.32497" y2="37.9555" gradientUnits="userSpaceOnUse">
<stop stop-color="#40B8FF"/>
<stop offset="0.00657445" stop-color="#40B9FF"/>
<stop offset="0.2601" stop-color="#40CEFF"/>
<stop offset="0.5122" stop-color="#40DDFF"/>
<stop offset="0.7604" stop-color="#40E7FF"/>
<stop offset="1" stop-color="#40EAFF"/>
</linearGradient>
<linearGradient id="paint11_linear_156_921" x1="10.9347" y1="0.412121" x2="26.1019" y2="15.4336" gradientUnits="userSpaceOnUse">
<stop stop-color="#65B895"/>
<stop offset="0.0685" stop-color="#62BD95"/>
<stop offset="0.4762" stop-color="#50DB97"/>
<stop offset="0.8009" stop-color="#44ED98"/>
<stop offset="1" stop-color="#40F498"/>
</linearGradient>
<clipPath id="clip0_156_921">
<rect width="200" height="60" fill="white"/>
</clipPath>
<clipPath id="clip1_156_921">
<rect width="200" height="60" fill="white"/>
</clipPath>
</defs>
</svg>
